<svg id="visual" viewBox="0 0 900 600" width="900" height="600" xmlns="http://www.w3.org/2000/svg" xmlns:xlink="http://www.w3.org/1999/xlink" version="1.1"><path d="M0 414L21.5 411C43 408 86 402 128.8 395.3C171.7 388.7 214.3 381.3 257.2 372.7C300 364 343 354 385.8 358.5C428.7 363 471.3 382 514.2 395.8C557 409.7 600 418.3 642.8 423C685.7 427.7 728.3 428.3 771.2 417.3C814 406.3 857 383.7 878.5 372.3L900 361L900 601L878.5 601C857 601 814 601 771.2 601C728.3 601 685.7 601 642.8 601C600 601 557 601 514.2 601C471.3 601 428.7 601 385.8 601C343 601 300 601 257.2 601C214.3 601 171.7 601 128.8 601C86 601 43 601 21.5 601L0 601Z" fill="#e12c2c"></path><path d="M0 430L21.5 429.2C43 428.3 86 426.7 128.8 421.5C171.7 416.3 214.3 407.7 257.2 403C300 398.3 343 397.7 385.8 392.5C428.7 387.3 471.3 377.7 514.2 376.7C557 375.7 600 383.3 642.8 393.7C685.7 404 728.3 417 771.2 417.8C814 418.7 857 407.3 878.5 401.7L900 396L900 601L878.5 601C857 601 814 601 771.2 601C728.3 601 685.7 601 642.8 601C600 601 557 601 514.2 601C471.3 601 428.7 601 385.8 601C343 601 300 601 257.2 601C214.3 601 171.7 601 128.8 601C86 601 43 601 21.5 601L0 601Z" fill="#e94426"></path><path d="M0 419L21.5 424.3C43 429.7 86 440.3 128.8 441.7C171.7 443 214.3 435 257.2 435.7C300 436.3 343 445.7 385.8 449.5C428.7 453.3 471.3 451.7 514.2 448.8C557 446 600 442 642.8 432.2C685.7 422.3 728.3 406.7 771.2 404C814 401.3 857 411.7 878.5 416.8L900 422L900 601L878.5 601C857 601 814 601 771.2 601C728.3 601 685.7 601 642.8 601C600 601 557 601 514.2 601C471.3 601 428.7 601 385.8 601C343 601 300 601 257.2 601C214.3 601 171.7 601 128.8 601C86 601 43 601 21.5 601L0 601Z" fill="#f1581e"></path><path d="M0 424L21.5 431.7C43 439.3 86 454.7 128.8 463.3C171.7 472 214.3 474 257.2 470.8C300 467.7 343 459.3 385.8 454.8C428.7 450.3 471.3 449.7 514.2 454.2C557 458.7 600 468.3 642.8 465.8C685.7 463.3 728.3 448.7 771.2 442.3C814 436 857 438 878.5 439L900 440L900 601L878.5 601C857 601 814 601 771.2 601C728.3 601 685.7 601 642.8 601C600 601 557 601 514.2 601C471.3 601 428.7 601 385.8 601C343 601 300 601 257.2 601C214.3 601 171.7 601 128.8 601C86 601 43 601 21.5 601L0 601Z" fill="#f76b15"></path><path d="M0 467L21.5 471.5C43 476 86 485 128.8 485.7C171.7 486.3 214.3 478.7 257.2 470.5C300 462.3 343 453.7 385.8 458C428.7 462.3 471.3 479.7 514.2 485.8C557 492 600 487 642.8 485.5C685.7 484 728.3 486 771.2 479C814 472 857 456 878.5 448L900 440L900 601L878.5 601C857 601 814 601 771.2 601C728.3 601 685.7 601 642.8 601C600 601 557 601 514.2 601C471.3 601 428.7 601 385.8 601C343 601 300 601 257.2 601C214.3 601 171.7 601 128.8 601C86 601 43 601 21.5 601L0 601Z" fill="#fb7e08"></path><path d="M0 494L21.5 497C43 500 86 506 128.8 508.7C171.7 511.3 214.3 510.7 257.2 509.5C300 508.3 343 506.7 385.8 502.3C428.7 498 471.3 491 514.2 486.8C557 482.7 600 481.3 642.8 480.8C685.7 480.3 728.3 480.7 771.2 478.7C814 476.7 857 472.3 878.5 470.2L900 468L900 601L878.5 601C857 601 814 601 771.2 601C728.3 601 685.7 601 642.8 601C600 601 557 601 514.2 601C471.3 601 428.7 601 385.8 601C343 601 300 601 257.2 601C214.3 601 171.7 601 128.8 601C86 601 43 601 21.5 601L0 601Z" fill="#ff9000"></path><path d="M0 526L21.5 526.3C43 526.7 86 527.3 128.8 528.3C171.7 529.3 214.3 530.7 257.2 526.2C300 521.7 343 511.3 385.8 504.7C428.7 498 471.3 495 514.2 495.3C557 495.7 600 499.3 642.8 504.5C685.7 509.7 728.3 516.3 771.2 521C814 525.7 857 528.3 878.5 529.7L900 531L900 601L878.5 601C857 601 814 601 771.2 601C728.3 601 685.7 601 642.8 601C600 601 557 601 514.2 601C471.3 601 428.7 601 385.8 601C343 601 300 601 257.2 601C214.3 601 171.7 601 128.8 601C86 601 43 601 21.5 601L0 601Z" fill="#ffa200"></path><path d="M0 535L21.5 532.3C43 529.7 86 524.3 128.8 521.3C171.7 518.3 214.3 517.7 257.2 519.7C300 521.7 343 526.3 385.8 531.5C428.7 536.7 471.3 542.3 514.2 542.5C557 542.7 600 537.3 642.8 536.8C685.7 536.3 728.3 540.7 771.2 537.7C814 534.7 857 524.3 878.5 519.2L900 514L900 601L878.5 601C857 601 814 601 771.2 601C728.3 601 685.7 601 642.8 601C600 601 557 601 514.2 601C471.3 601 428.7 601 385.8 601C343 601 300 601 257.2 601C214.3 601 171.7 601 128.8 601C86 601 43 601 21.5 601L0 601Z" fill="#ffb400"></path><path d="M0 544L21.5 544.5C43 545 86 546 128.8 546.7C171.7 547.3 214.3 547.7 257.2 548.8C300 550 343 552 385.8 554.2C428.7 556.3 471.3 558.7 514.2 557.2C557 555.7 600 550.3 642.8 546.7C685.7 543 728.3 541 771.2 539.8C814 538.7 857 538.3 878.5 538.2L900 538L900 601L878.5 601C857 601 814 601 771.2 601C728.3 601 685.7 601 642.8 601C600 601 557 601 514.2 601C471.3 601 428.7 601 385.8 601C343 601 300 601 257.2 601C214.3 601 171.7 601 128.8 601C86 601 43 601 21.5 601L0 601Z" fill="#ffc500"></path><path d="M0 573L21.5 572.2C43 571.3 86 569.7 128.8 571.3C171.7 573 214.3 578 257.2 577.8C300 577.7 343 572.3 385.8 571.8C428.7 571.3 471.3 575.7 514.2 574.5C557 573.3 600 566.7 642.8 567.3C685.7 568 728.3 576 771.2 576.7C814 577.3 857 570.7 878.5 567.3L900 564L900 601L878.5 601C857 601 814 601 771.2 601C728.3 601 685.7 601 642.8 601C600 601 557 601 514.2 601C471.3 601 428.7 601 385.8 601C343 601 300 601 257.2 601C214.3 601 171.7 601 128.8 601C86 601 43 601 21.5 601L0 601Z" fill="#ffd700"></path></svg>