<svg xmlns="http://www.w3.org/2000/svg" viewBox="0 0 207.15 66.25"><g id="レイヤー_2" data-name="レイヤー 2"><g id="レイヤー_1-2" data-name="レイヤー 1"><path d="M78.87,11.45H77.08v8.33a2,2,0,0,1-.23,1.07.69.69,0,0,1-.59.35.68.68,0,0,1-.59-.36,1.87,1.87,0,0,1-.23-1.06V11.45h-1.8a.71.71,0,0,1-.62-.26,1.05,1.05,0,0,1-.21-.69A1.06,1.06,0,0,1,73,9.79a.74.74,0,0,1,.61-.25h5.23a.78.78,0,0,1,.64.26,1.1,1.1,0,0,1,.2.7,1.05,1.05,0,0,1-.21.69A.74.74,0,0,1,78.87,11.45Z"/><path d="M83.9,20a5.21,5.21,0,0,1-1.06.91,2.27,2.27,0,0,1-1.15.3,1.69,1.69,0,0,1-1-.33A2,2,0,0,1,80,20a3,3,0,0,1-.24-1.2,2.77,2.77,0,0,1,.39-1.5,1.89,1.89,0,0,1,1.08-.82l.72-.22,1-.3c.27-.09.57-.2.89-.33a3,3,0,0,0-.24-1.24.93.93,0,0,0-.89-.39,1.38,1.38,0,0,0-.86.22,1.75,1.75,0,0,0-.5.68,5.22,5.22,0,0,1-.3.6c-.05.1-.18.15-.37.15a.57.57,0,0,1-.44-.23.94.94,0,0,1-.18-.59,2.31,2.31,0,0,1,.28-1.1,2.25,2.25,0,0,1,.88-.88,3.07,3.07,0,0,1,1.49-.34,3.13,3.13,0,0,1,1.57.33,1.85,1.85,0,0,1,.81,1.05,6.58,6.58,0,0,1,.23,1.91v1.28c0,.35,0,.74,0,1.16a6.31,6.31,0,0,0,.14,1.26,4.54,4.54,0,0,1,.14.84.91.91,0,0,1-.22.6.53.53,0,0,1-1,0A5.11,5.11,0,0,1,83.9,20Zm-.1-3.09a5.7,5.7,0,0,1-1,.37c-.42.12-.72.22-.88.28a1.13,1.13,0,0,0-.46.35,1.1,1.1,0,0,0-.22.73,1.31,1.31,0,0,0,.26.83.83.83,0,0,0,.68.34,1.43,1.43,0,0,0,.83-.28,1.64,1.64,0,0,0,.55-.72,4.31,4.31,0,0,0,.21-1.59Z"/><path d="M86.67,12.7h.17V11.42c0-.34,0-.61,0-.81a1.48,1.48,0,0,1,.1-.5.88.88,0,0,1,.26-.36.57.57,0,0,1,.37-.14.68.68,0,0,1,.52.31,1.12,1.12,0,0,1,.2.5,8,8,0,0,1,0,.83V12.7h.55a.59.59,0,0,1,.49.22.82.82,0,0,1,.17.55.68.68,0,0,1-.24.6,1.14,1.14,0,0,1-.69.17h-.28v3.93c0,.33,0,.59,0,.77a.92.92,0,0,0,.14.44.39.39,0,0,0,.35.17,1.59,1.59,0,0,0,.36-.07,1.63,1.63,0,0,1,.35-.07.42.42,0,0,1,.33.21.85.85,0,0,1,.15.51.88.88,0,0,1-.4.79,2,2,0,0,1-1.15.28A1.42,1.42,0,0,1,87,19.93a8.56,8.56,0,0,1-.11-1.59v-4.1h-.2a.6.6,0,0,1-.5-.21.87.87,0,0,1-.17-.56.83.83,0,0,1,.18-.55A.65.65,0,0,1,86.67,12.7Z"/><path d="M94.88,17.38h-3a4.08,4.08,0,0,0,.21,1.28,1.94,1.94,0,0,0,.54.84,1.1,1.1,0,0,0,.74.28,1.3,1.3,0,0,0,.49-.09,1.42,1.42,0,0,0,.44-.28,3.78,3.78,0,0,0,.39-.41l.46-.6a.39.39,0,0,1,.33-.14.45.45,0,0,1,.37.18A.78.78,0,0,1,96,19a1.75,1.75,0,0,1-.16.68,2.57,2.57,0,0,1-.49.74,2.36,2.36,0,0,1-.81.59,2.54,2.54,0,0,1-1.13.24A2.58,2.58,0,0,1,91.19,20a5.5,5.5,0,0,1-.81-3.18,6.89,6.89,0,0,1,.2-1.75,4.19,4.19,0,0,1,.58-1.39,2.66,2.66,0,0,1,.94-.89,2.48,2.48,0,0,1,1.24-.31,2.31,2.31,0,0,1,1.52.53,3.25,3.25,0,0,1,1,1.36,4.84,4.84,0,0,1,.32,1.71,1.25,1.25,0,0,1-.33,1A1.53,1.53,0,0,1,94.88,17.38Zm-3-1.21h2.75a3.34,3.34,0,0,0-.42-1.64,1.12,1.12,0,0,0-1-.54,1.08,1.08,0,0,0-.93.55A3.46,3.46,0,0,0,91.92,16.17Z"/><path d="M98.22,11.52a.68.68,0,0,1-.54-.27,1.18,1.18,0,0,1-.22-.77,1.12,1.12,0,0,1,.23-.75.64.64,0,0,1,1,0,1.19,1.19,0,0,1,.23.78,1.28,1.28,0,0,1-.22.77A.68.68,0,0,1,98.22,11.52ZM99,13.73V19.9a1.72,1.72,0,0,1-.22,1,.63.63,0,0,1-.55.33.63.63,0,0,1-.54-.34,1.91,1.91,0,0,1-.2-1V13.79a1.84,1.84,0,0,1,.2-.95.62.62,0,0,1,1.09,0A1.52,1.52,0,0,1,99,13.73Z"/><path d="M105.46,18.4a3.38,3.38,0,0,1-.31,1.52,2,2,0,0,1-.9.95,3,3,0,0,1-1.45.33,2.57,2.57,0,0,1-1.39-.36,2.14,2.14,0,0,1-.86-.88,2.18,2.18,0,0,1-.28-1.05,1,1,0,0,1,.18-.61.55.55,0,0,1,.45-.25.42.42,0,0,1,.36.17,1.76,1.76,0,0,1,.25.46,2.23,2.23,0,0,0,.55.85,1.3,1.3,0,0,0,.89.28,1,1,0,0,0,.74-.28.87.87,0,0,0,.29-.66,1,1,0,0,0-.3-.82,3.22,3.22,0,0,0-1-.49,6.41,6.41,0,0,1-1.27-.57,2.42,2.42,0,0,1-.79-.8,2.38,2.38,0,0,1-.29-1.21,2.78,2.78,0,0,1,.27-1.21,2.14,2.14,0,0,1,.8-.91,2.29,2.29,0,0,1,1.28-.34,2.89,2.89,0,0,1,1,.17,2.3,2.3,0,0,1,.78.46,2.07,2.07,0,0,1,.48.64,1.61,1.61,0,0,1,.16.69,1,1,0,0,1-.17.6.58.58,0,0,1-.5.24.52.52,0,0,1-.39-.19,3.54,3.54,0,0,1-.38-.56,1.74,1.74,0,0,0-.4-.51,1,1,0,0,0-.63-.18,1,1,0,0,0-.68.24.84.84,0,0,0-.08,1.17,1.63,1.63,0,0,0,.54.35c.23.1.54.21.93.35a4,4,0,0,1,1.15.58,2.16,2.16,0,0,1,.91,1.83Z"/><path d="M107.56,11.52a.68.68,0,0,1-.54-.27,1.18,1.18,0,0,1-.23-.77,1.18,1.18,0,0,1,.23-.75.65.65,0,0,1,1.06,0,1.19,1.19,0,0,1,.23.78,1.22,1.22,0,0,1-.23.77A.64.64,0,0,1,107.56,11.52Zm.75,2.21V19.9a1.81,1.81,0,0,1-.22,1,.61.61,0,0,1-1.09,0,1.8,1.8,0,0,1-.21-1V13.79a1.74,1.74,0,0,1,.21-.95.61.61,0,0,1,.54-.32.63.63,0,0,1,.55.32A1.6,1.6,0,0,1,108.31,13.73Z"/><path d="M79.21,33.94a4.46,4.46,0,0,1-.38,1.87,2.89,2.89,0,0,1-1.11,1.3,3.19,3.19,0,0,1-1.74.47,3,3,0,0,1-2-.64,3.39,3.39,0,0,1-.9-1.23,3.71,3.71,0,0,1-.35-1.5,1.22,1.22,0,0,1,.21-.72.64.64,0,0,1,.53-.31.53.53,0,0,1,.44.24,2.2,2.2,0,0,1,.31.7,5.21,5.21,0,0,0,.33.91,1.59,1.59,0,0,0,.51.61,1.43,1.43,0,0,0,.86.23,1.57,1.57,0,0,0,1.19-.48,1.69,1.69,0,0,0,.46-1.2,1.59,1.59,0,0,0-.25-.92,1.7,1.7,0,0,0-.64-.55c-.26-.12-.61-.25-1-.4a6.1,6.1,0,0,1-1.47-.67,2.74,2.74,0,0,1-.93-1.06,3.58,3.58,0,0,1-.35-1.66,3.64,3.64,0,0,1,.37-1.68,2.56,2.56,0,0,1,1-1.13,3.31,3.31,0,0,1,1.63-.4,2.93,2.93,0,0,1,1.3.27,2.58,2.58,0,0,1,.9.69,3,3,0,0,1,.53.91,2.84,2.84,0,0,1,.16.93,1.45,1.45,0,0,1-.2.75.61.61,0,0,1-.52.33.49.49,0,0,1-.43-.2,2.59,2.59,0,0,1-.32-.65,3.07,3.07,0,0,0-.53-1,1.26,1.26,0,0,0-1-.37,1.41,1.41,0,0,0-1,.4,1.3,1.3,0,0,0-.39.95,1.2,1.2,0,0,0,.14.59,1.24,1.24,0,0,0,.36.43,2.39,2.39,0,0,0,.47.29l.79.29a9.69,9.69,0,0,1,1.24.5,3.75,3.75,0,0,1,.95.67,2.72,2.72,0,0,1,.61,1A4.16,4.16,0,0,1,79.21,33.94Z"/><path d="M86,34.94a2.52,2.52,0,0,1-.17.85,2.83,2.83,0,0,1-.51.86,2.43,2.43,0,0,1-.88.66,2.65,2.65,0,0,1-1.18.25,2.49,2.49,0,0,1-2.19-1.15,5.44,5.44,0,0,1-.79-3.09A6.85,6.85,0,0,1,80.62,31a3.38,3.38,0,0,1,1-1.56,2.52,2.52,0,0,1,1.63-.56,2.32,2.32,0,0,1,1.08.25,2.74,2.74,0,0,1,.83.62,2.9,2.9,0,0,1,.52.82,2.13,2.13,0,0,1,.18.81,1,1,0,0,1-.2.65.61.61,0,0,1-.49.26.39.39,0,0,1-.31-.13,1.68,1.68,0,0,1-.28-.45,3.34,3.34,0,0,0-.58-.89,1.08,1.08,0,0,0-.77-.29,1.2,1.2,0,0,0-1.08.74,4.2,4.2,0,0,0-.41,2,5.32,5.32,0,0,0,.11,1.1,3,3,0,0,0,.3.86,1.42,1.42,0,0,0,.48.54,1.14,1.14,0,0,0,1.4-.11,2.37,2.37,0,0,0,.57-.91,2.57,2.57,0,0,1,.3-.56.48.48,0,0,1,.4-.2.55.55,0,0,1,.46.29A1.21,1.21,0,0,1,86,34.94Z"/><path d="M88.12,27.91a.66.66,0,0,1-.54-.28,1.18,1.18,0,0,1-.23-.77,1.22,1.22,0,0,1,.23-.75.65.65,0,0,1,1.06,0,1.48,1.48,0,0,1,0,1.55A.66.66,0,0,1,88.12,27.91Zm.74,2.2v6.17a1.81,1.81,0,0,1-.21,1,.65.65,0,0,1-.55.33.61.61,0,0,1-.54-.34,1.8,1.8,0,0,1-.21-1V30.17a1.74,1.74,0,0,1,.21-1,.63.63,0,0,1,.54-.32.66.66,0,0,1,.55.32A1.6,1.6,0,0,1,88.86,30.11Z"/><path d="M94.71,33.76h-3a3.88,3.88,0,0,0,.2,1.29,1.93,1.93,0,0,0,.54.83,1.12,1.12,0,0,0,.74.28,1.35,1.35,0,0,0,.5-.09,1.38,1.38,0,0,0,.43-.28,3,3,0,0,0,.39-.41c.12-.14.27-.34.46-.59a.39.39,0,0,1,.33-.14.46.46,0,0,1,.38.18.77.77,0,0,1,.14.51,1.74,1.74,0,0,1-.16.67,2.41,2.41,0,0,1-.48.74,2.68,2.68,0,0,1-.82.6,2.63,2.63,0,0,1-1.12.23A2.6,2.6,0,0,1,91,36.41a5.56,5.56,0,0,1-.81-3.19,7.44,7.44,0,0,1,.2-1.75A4.51,4.51,0,0,1,91,30.08a2.74,2.74,0,0,1,.94-.89,2.63,2.63,0,0,1,1.25-.31,2.33,2.33,0,0,1,1.52.53,3.22,3.22,0,0,1,1,1.37,4.74,4.74,0,0,1,.31,1.7,1.3,1.3,0,0,1-.32,1.05A1.62,1.62,0,0,1,94.71,33.76Zm-3-1.21h2.74a3.37,3.37,0,0,0-.42-1.64,1.1,1.1,0,0,0-.95-.54,1.07,1.07,0,0,0-.93.55A3.46,3.46,0,0,0,91.75,32.55Z"/><path d="M98.65,30.08v.26a3.15,3.15,0,0,1,.88-1.09,1.8,1.8,0,0,1,1.09-.35,1.65,1.65,0,0,1,1.06.37,2.15,2.15,0,0,1,.71,1,3.22,3.22,0,0,1,.19.84c0,.3,0,.69,0,1.16v4a1.81,1.81,0,0,1-.21,1,.61.61,0,0,1-1.09,0,1.8,1.8,0,0,1-.21-1V32.72a4.78,4.78,0,0,0-.21-1.61.81.81,0,0,0-.83-.56,1,1,0,0,0-.73.34,2,2,0,0,0-.49.93,9.83,9.83,0,0,0-.11,1.79v2.67a1.76,1.76,0,0,1-.22,1,.64.64,0,0,1-.55.32.61.61,0,0,1-.53-.34,1.8,1.8,0,0,1-.21-1V30.11a1.8,1.8,0,0,1,.18-.91.59.59,0,0,1,.52-.3.55.55,0,0,1,.36.13.93.93,0,0,1,.26.4A2,2,0,0,1,98.65,30.08Z"/><path d="M109.61,34.94a2.29,2.29,0,0,1-.17.85,2.83,2.83,0,0,1-.51.86,2.4,2.4,0,0,1-.87.66,2.7,2.7,0,0,1-1.19.25,2.51,2.51,0,0,1-2.19-1.15,5.44,5.44,0,0,1-.78-3.09,6.85,6.85,0,0,1,.36-2.32,3.31,3.31,0,0,1,1-1.56,2.48,2.48,0,0,1,1.63-.56,2.25,2.25,0,0,1,1.07.25,2.78,2.78,0,0,1,.84.62,3.14,3.14,0,0,1,.52.82,2.13,2.13,0,0,1,.18.81,1,1,0,0,1-.21.65.59.59,0,0,1-.49.26.4.4,0,0,1-.31-.13,2,2,0,0,1-.28-.45,3.11,3.11,0,0,0-.58-.89,1.08,1.08,0,0,0-.77-.29,1.22,1.22,0,0,0-1.08.74,4.2,4.2,0,0,0-.41,2,5.32,5.32,0,0,0,.11,1.1,3,3,0,0,0,.3.86,1.52,1.52,0,0,0,.49.54,1,1,0,0,0,.62.19,1.08,1.08,0,0,0,.77-.3,2.51,2.51,0,0,0,.58-.91,1.93,1.93,0,0,1,.3-.56A.46.46,0,0,1,109,34a.53.53,0,0,1,.46.29A1.21,1.21,0,0,1,109.61,34.94Z"/><path d="M115.21,33.76h-3a3.63,3.63,0,0,0,.21,1.29,1.84,1.84,0,0,0,.53.83,1.12,1.12,0,0,0,.74.28,1.35,1.35,0,0,0,.5-.09,1.38,1.38,0,0,0,.43-.28,3,3,0,0,0,.39-.41c.12-.14.27-.34.46-.59a.39.39,0,0,1,.33-.14.45.45,0,0,1,.38.18.78.78,0,0,1,.15.51,1.78,1.78,0,0,1-.17.67,2.24,2.24,0,0,1-.48.74,2.76,2.76,0,0,1-.81.6,2.71,2.71,0,0,1-1.13.23,2.61,2.61,0,0,1-2.27-1.17,5.56,5.56,0,0,1-.81-3.19,7.44,7.44,0,0,1,.2-1.75,4.77,4.77,0,0,1,.58-1.39,2.69,2.69,0,0,1,1-.89,2.56,2.56,0,0,1,1.24-.31,2.31,2.31,0,0,1,1.52.53,3.22,3.22,0,0,1,1,1.37,4.74,4.74,0,0,1,.31,1.7,1.3,1.3,0,0,1-.32,1.05A1.62,1.62,0,0,1,115.21,33.76Zm-3-1.21H115a3.37,3.37,0,0,0-.42-1.64,1.1,1.1,0,0,0-.95-.54,1.07,1.07,0,0,0-.93.55A3.46,3.46,0,0,0,112.25,32.55Z"/><path d="M124.5,36.38a4.84,4.84,0,0,1-1.06.9,2.24,2.24,0,0,1-1.15.3,1.7,1.7,0,0,1-1-.32,2.07,2.07,0,0,1-.68-.88,3,3,0,0,1-.24-1.21,2.73,2.73,0,0,1,.39-1.49,1.9,1.9,0,0,1,1.08-.83l.72-.21,1-.3c.28-.09.57-.21.89-.34a3,3,0,0,0-.24-1.24.93.93,0,0,0-.89-.39,1.38,1.38,0,0,0-.86.23,1.67,1.67,0,0,0-.5.68q-.21.45-.3.6a.39.39,0,0,1-.36.14.55.55,0,0,1-.44-.23.87.87,0,0,1-.19-.59,2.31,2.31,0,0,1,.28-1.1,2.23,2.23,0,0,1,.88-.87,3,3,0,0,1,1.49-.35,3,3,0,0,1,1.57.34,1.82,1.82,0,0,1,.81,1.05,6.54,6.54,0,0,1,.23,1.91v1.27c0,.35,0,.74,0,1.17a6.14,6.14,0,0,0,.14,1.25,4.81,4.81,0,0,1,.14.84,1,1,0,0,1-.21.6.65.65,0,0,1-.5.27.59.59,0,0,1-.46-.31A5,5,0,0,1,124.5,36.38Zm-.1-3.09a6.89,6.89,0,0,1-1,.36l-.88.28a1.2,1.2,0,0,0-.46.35,1.1,1.1,0,0,0-.22.73,1.29,1.29,0,0,0,.26.83.8.8,0,0,0,.68.34,1.36,1.36,0,0,0,.83-.28,1.61,1.61,0,0,0,.55-.71,4.41,4.41,0,0,0,.21-1.6Z"/><path d="M128.85,30.08v.26a3,3,0,0,1,.87-1.09,1.8,1.8,0,0,1,1.09-.35,1.68,1.68,0,0,1,1.07.37,2.21,2.21,0,0,1,.7,1,3.22,3.22,0,0,1,.19.84c0,.3,0,.69,0,1.16v4a1.81,1.81,0,0,1-.21,1,.61.61,0,0,1-1.09,0,1.8,1.8,0,0,1-.21-1V32.72a4.78,4.78,0,0,0-.21-1.61.81.81,0,0,0-.83-.56,1,1,0,0,0-.73.34,2.06,2.06,0,0,0-.49.93,9.83,9.83,0,0,0-.11,1.79v2.67a1.85,1.85,0,0,1-.21,1,.67.67,0,0,1-.56.32.61.61,0,0,1-.53-.34,1.8,1.8,0,0,1-.21-1V30.11a1.69,1.69,0,0,1,.19-.91.56.56,0,0,1,.51-.3.55.55,0,0,1,.36.13.93.93,0,0,1,.26.4A2,2,0,0,1,128.85,30.08Z"/><path d="M138.52,36.36v-.21a4.62,4.62,0,0,1-.6.8,2,2,0,0,1-.64.47,1.73,1.73,0,0,1-.76.16,1.75,1.75,0,0,1-1-.32,2.73,2.73,0,0,1-.8-.93,4.66,4.66,0,0,1-.51-1.42,8.13,8.13,0,0,1-.18-1.76,6,6,0,0,1,.69-3.12,2.09,2.09,0,0,1,1.83-1.11,1.87,1.87,0,0,1,1.1.31,3.42,3.42,0,0,1,.87,1V27.05a2.17,2.17,0,0,1,.19-1,.59.59,0,0,1,.53-.34.6.6,0,0,1,.53.31,1.85,1.85,0,0,1,.18.91v9.42a1.6,1.6,0,0,1-.2.91.58.58,0,0,1-.51.31.59.59,0,0,1-.51-.32A1.62,1.62,0,0,1,138.52,36.36Zm-3-3.14a4.88,4.88,0,0,0,.19,1.48,2.12,2.12,0,0,0,.52.92,1.06,1.06,0,0,0,.73.31,1.09,1.09,0,0,0,.73-.29,2.15,2.15,0,0,0,.53-.9,5.07,5.07,0,0,0,.19-1.52,4.88,4.88,0,0,0-.19-1.46,2.29,2.29,0,0,0-.54-.94,1,1,0,0,0-1.47,0,2.2,2.2,0,0,0-.51,1A5.25,5.25,0,0,0,135.55,33.22Z"/><path d="M149.8,27.84H148v8.32a2,2,0,0,1-.23,1.07.67.67,0,0,1-1.18,0,1.93,1.93,0,0,1-.23-1.07V27.84h-1.8a.72.72,0,0,1-.62-.27,1.26,1.26,0,0,1,0-1.39.78.78,0,0,1,.62-.26h5.23a.76.76,0,0,1,.64.27,1.13,1.13,0,0,1,.2.69,1.05,1.05,0,0,1-.21.69A.75.75,0,0,1,149.8,27.84Z"/><path d="M155.09,33.76h-3a3.63,3.63,0,0,0,.21,1.29,1.77,1.77,0,0,0,.54.83,1.08,1.08,0,0,0,.73.28,1.31,1.31,0,0,0,.5-.09,1.54,1.54,0,0,0,.44-.28,3,3,0,0,0,.38-.41c.12-.14.27-.34.46-.59a.4.4,0,0,1,.34-.14.45.45,0,0,1,.37.18.78.78,0,0,1,.15.51,2,2,0,0,1-.16.67,2.44,2.44,0,0,1-.49.74,2.76,2.76,0,0,1-.81.6,2.71,2.71,0,0,1-1.13.23,2.61,2.61,0,0,1-2.27-1.17,5.56,5.56,0,0,1-.81-3.19,7.44,7.44,0,0,1,.2-1.75,4.52,4.52,0,0,1,.59-1.39,2.53,2.53,0,0,1,2.18-1.2,2.31,2.31,0,0,1,1.52.53,3.22,3.22,0,0,1,1,1.37,4.74,4.74,0,0,1,.31,1.7c0,.54-.1.89-.32,1.05A1.62,1.62,0,0,1,155.09,33.76Zm-3-1.21h2.74a3.16,3.16,0,0,0-.42-1.64,1.1,1.1,0,0,0-.95-.54,1.07,1.07,0,0,0-.93.55A3.46,3.46,0,0,0,152.13,32.55Z"/><path d="M163.09,34.94a2.52,2.52,0,0,1-.17.85,3.09,3.09,0,0,1-.52.86,2.4,2.4,0,0,1-.87.66,2.7,2.7,0,0,1-1.19.25,2.48,2.48,0,0,1-2.18-1.15,5.36,5.36,0,0,1-.79-3.09,6.85,6.85,0,0,1,.36-2.32,3.38,3.38,0,0,1,1-1.56,2.52,2.52,0,0,1,1.63-.56,2.32,2.32,0,0,1,1.08.25,2.86,2.86,0,0,1,.83.62,2.9,2.9,0,0,1,.52.82,2.13,2.13,0,0,1,.18.81,1.09,1.09,0,0,1-.2.65.62.62,0,0,1-.49.26.42.42,0,0,1-.32-.13,2.41,2.41,0,0,1-.28-.45,2.91,2.91,0,0,0-.58-.89,1.06,1.06,0,0,0-.76-.29,1.2,1.2,0,0,0-1.08.74,4.09,4.09,0,0,0-.41,2,5.35,5.35,0,0,0,.1,1.1,2.71,2.71,0,0,0,.31.86,1.42,1.42,0,0,0,.48.54,1.06,1.06,0,0,0,.62.19,1.12,1.12,0,0,0,.78-.3,2.5,2.5,0,0,0,.57-.91,1.93,1.93,0,0,1,.3-.56.47.47,0,0,1,.39-.2.53.53,0,0,1,.46.29A1.14,1.14,0,0,1,163.09,34.94Z"/><path d="M165.65,27v3.17a4.06,4.06,0,0,1,.57-.74,1.69,1.69,0,0,1,.6-.41,1.92,1.92,0,0,1,.72-.14,1.63,1.63,0,0,1,1,.34,2.28,2.28,0,0,1,.7,1,3.29,3.29,0,0,1,.22.86c0,.32.05.68.05,1.09v4.09a1.81,1.81,0,0,1-.21,1,.62.62,0,0,1-.55.33c-.49,0-.74-.43-.74-1.3v-3.6a4.59,4.59,0,0,0-.22-1.58.8.8,0,0,0-.82-.55,1,1,0,0,0-.73.32,2.05,2.05,0,0,0-.48.89,7.92,7.92,0,0,0-.13,1.7v2.82a1.85,1.85,0,0,1-.2,1,.62.62,0,0,1-.56.33c-.5,0-.75-.43-.75-1.3V27a1.92,1.92,0,0,1,.2-1,.6.6,0,0,1,.55-.33.62.62,0,0,1,.56.33A1.85,1.85,0,0,1,165.65,27Z"/><path d="M172.46,30.08v.26a3.25,3.25,0,0,1,.87-1.09,1.82,1.82,0,0,1,1.09-.35,1.66,1.66,0,0,1,1.07.37,2.14,2.14,0,0,1,.7,1,3.23,3.23,0,0,1,.2.84c0,.3,0,.69,0,1.16v4a1.81,1.81,0,0,1-.21,1,.62.62,0,0,1-.54.33.64.64,0,0,1-.55-.34,1.8,1.8,0,0,1-.21-1V32.72a4.82,4.82,0,0,0-.2-1.61.82.82,0,0,0-.83-.56,1,1,0,0,0-.74.34,2.17,2.17,0,0,0-.49.93,9.83,9.83,0,0,0-.11,1.79v2.67a1.85,1.85,0,0,1-.21,1,.65.65,0,0,1-.55.32.61.61,0,0,1-.54-.34,1.8,1.8,0,0,1-.21-1V30.11a1.69,1.69,0,0,1,.19-.91.58.58,0,0,1,.51-.3.52.52,0,0,1,.36.13.85.85,0,0,1,.26.4A1.78,1.78,0,0,1,172.46,30.08Z"/><path d="M183.66,33.24a7,7,0,0,1-.21,1.76,4.37,4.37,0,0,1-.61,1.38,2.89,2.89,0,0,1-1,.89,2.63,2.63,0,0,1-2.48,0,3,3,0,0,1-1-.9,4.4,4.4,0,0,1-.61-1.37,6.91,6.91,0,0,1-.21-1.76,6.63,6.63,0,0,1,.22-1.78,4.41,4.41,0,0,1,.6-1.37,2.74,2.74,0,0,1,1-.88,2.48,2.48,0,0,1,1.24-.31,2.46,2.46,0,0,1,1.24.31,2.81,2.81,0,0,1,1,.89,4.35,4.35,0,0,1,.61,1.38A6.91,6.91,0,0,1,183.66,33.24Zm-1.52,0a4.19,4.19,0,0,0-.41-2,1.21,1.21,0,0,0-1.09-.73,1.1,1.1,0,0,0-.78.32,2.09,2.09,0,0,0-.52,1,5.07,5.07,0,0,0-.19,1.48,5.3,5.3,0,0,0,.18,1.46,2.09,2.09,0,0,0,.52,1,1.07,1.07,0,0,0,.79.33,1.21,1.21,0,0,0,1.09-.73A4.2,4.2,0,0,0,182.14,33.24Z"/><path d="M184.9,36.28V27a1.84,1.84,0,0,1,.21-1,.6.6,0,0,1,.54-.33.64.64,0,0,1,.56.33,1.81,1.81,0,0,1,.21,1v9.26a1.76,1.76,0,0,1-.22,1,.64.64,0,0,1-.55.32.61.61,0,0,1-.54-.34A1.8,1.8,0,0,1,184.9,36.28Z"/><path d="M193.7,33.24a7,7,0,0,1-.21,1.76,4.37,4.37,0,0,1-.61,1.38,3,3,0,0,1-.95.89,2.49,2.49,0,0,1-1.25.31,2.46,2.46,0,0,1-1.24-.31,3,3,0,0,1-.95-.9,4.64,4.64,0,0,1-.61-1.37,7.4,7.4,0,0,1-.2-1.76,7.07,7.07,0,0,1,.21-1.78,4.41,4.41,0,0,1,.6-1.37,2.74,2.74,0,0,1,.95-.88,2.66,2.66,0,0,1,2.49,0,2.87,2.87,0,0,1,.95.89,4.35,4.35,0,0,1,.61,1.38A6.91,6.91,0,0,1,193.7,33.24Zm-1.52,0a4.19,4.19,0,0,0-.41-2,1.21,1.21,0,0,0-1.09-.73,1.1,1.1,0,0,0-.78.32,2.09,2.09,0,0,0-.52,1,5.07,5.07,0,0,0-.19,1.48,5.3,5.3,0,0,0,.18,1.46,2.19,2.19,0,0,0,.52,1,1.09,1.09,0,0,0,.79.33,1.21,1.21,0,0,0,1.09-.73A4.2,4.2,0,0,0,192.18,33.24Z"/><path d="M200.51,30.46v6.2a9.57,9.57,0,0,1-.16,1.83,3.29,3.29,0,0,1-.52,1.27,2,2,0,0,1-.93.74,3.47,3.47,0,0,1-1.42.25,3.17,3.17,0,0,1-1.4-.31,2.51,2.51,0,0,1-1-.8,1.78,1.78,0,0,1-.33-1A1,1,0,0,1,195,38a.55.55,0,0,1,.45-.25.71.71,0,0,1,.59.42c.08.14.16.28.25.42a1.36,1.36,0,0,0,.29.37,1,1,0,0,0,.38.23,1.53,1.53,0,0,0,.51.07,1.59,1.59,0,0,0,.91-.23,1.25,1.25,0,0,0,.45-.64,3.25,3.25,0,0,0,.15-.89c0-.32,0-.82,0-1.52a3.06,3.06,0,0,1-.81,1,1.7,1.7,0,0,1-1.09.36,1.88,1.88,0,0,1-1.33-.54,3.73,3.73,0,0,1-.87-1.54,8.63,8.63,0,0,1-.12-4,4.31,4.31,0,0,1,.53-1.3,2.55,2.55,0,0,1,.79-.81,2,2,0,0,1,1-.26,1.81,1.81,0,0,1,1.11.34,3.35,3.35,0,0,1,.88,1.09v-.29a1.61,1.61,0,0,1,.19-.86.58.58,0,0,1,.5-.3.56.56,0,0,1,.58.4A3.5,3.5,0,0,1,200.51,30.46Zm-4.38,2.71a3.83,3.83,0,0,0,.4,2,1.18,1.18,0,0,0,1,.67,1.1,1.1,0,0,0,.71-.29,2.05,2.05,0,0,0,.54-.86,4.07,4.07,0,0,0,.21-1.39,4.24,4.24,0,0,0-.4-2,1.23,1.23,0,0,0-1.08-.73,1.17,1.17,0,0,0-1,.7A4.08,4.08,0,0,0,196.13,33.17Z"/><path d="M203.49,37.85l.14-.48-1.86-6.62a3.1,3.1,0,0,1-.18-.83,1.35,1.35,0,0,1,.1-.5A.92.92,0,0,1,202,29a.61.61,0,0,1,.36-.14.53.53,0,0,1,.49.29,3.2,3.2,0,0,1,.3.84l1.28,5.26,1.21-4.89c.1-.4.18-.71.26-.93a1.06,1.06,0,0,1,.25-.45.53.53,0,0,1,.37-.12.51.51,0,0,1,.33.13.84.84,0,0,1,.24.35,1.18,1.18,0,0,1,.09.46c0,.1,0,.24-.08.42s-.07.37-.12.56l-2,7.28a10.58,10.58,0,0,1-.5,1.51,2,2,0,0,1-.64.84,1.78,1.78,0,0,1-1.09.3,1.87,1.87,0,0,1-1-.21.78.78,0,0,1-.34-.74,1,1,0,0,1,.16-.57.58.58,0,0,1,.47-.2.69.69,0,0,1,.24,0,.85.85,0,0,0,.25.05A.71.71,0,0,0,203,39a.91.91,0,0,0,.27-.38C203.29,38.46,203.39,38.19,203.49,37.85Z"/><path d="M77.7,43.83H74.46v2.93h2.71a.66.66,0,0,1,.56.24,1,1,0,0,1,.19.64.93.93,0,0,1-.19.63.66.66,0,0,1-.56.24H74.46v3.78a1.87,1.87,0,0,1-.23,1.06.67.67,0,0,1-1.18,0,1.92,1.92,0,0,1-.23-1.06V43.46a2.63,2.63,0,0,1,.1-.81.81.81,0,0,1,.33-.46,1,1,0,0,1,.58-.15H77.7a.68.68,0,0,1,.59.25,1,1,0,0,1,.19.64,1.05,1.05,0,0,1-.19.66A.71.71,0,0,1,77.7,43.83Z"/><path d="M84.85,49.36a7,7,0,0,1-.21,1.76A4.16,4.16,0,0,1,84,52.5a2.68,2.68,0,0,1-1,.89,2.49,2.49,0,0,1-1.25.31,2.39,2.39,0,0,1-1.23-.31,2.8,2.8,0,0,1-.95-.9A4.29,4.29,0,0,1,79,51.12a7.52,7.52,0,0,1,0-3.53,4.36,4.36,0,0,1,.6-1.38,2.87,2.87,0,0,1,1-.88A2.44,2.44,0,0,1,81.83,45a2.49,2.49,0,0,1,1.25.31,3,3,0,0,1,1,.89,4.34,4.34,0,0,1,.6,1.38A6.91,6.91,0,0,1,84.85,49.36Zm-1.52,0a4.2,4.2,0,0,0-.4-2,1.23,1.23,0,0,0-1.1-.73,1.13,1.13,0,0,0-.78.32,2.19,2.19,0,0,0-.52,1,5.5,5.5,0,0,0-.18,1.48,5.25,5.25,0,0,0,.18,1.46,2.18,2.18,0,0,0,.51,1,1.11,1.11,0,0,0,.79.33,1.23,1.23,0,0,0,1.1-.73A4.21,4.21,0,0,0,83.33,49.36Z"/><path d="M90,52.5v-.28a4.2,4.2,0,0,1-.57.82,1.92,1.92,0,0,1-1.46.65,1.57,1.57,0,0,1-1-.33,2,2,0,0,1-.68-.88A5.23,5.23,0,0,1,86,50.53V46.3a1.75,1.75,0,0,1,.21-1,.61.61,0,0,1,.54-.32.64.64,0,0,1,.55.32,1.78,1.78,0,0,1,.21,1v3.41A7.29,7.29,0,0,0,87.62,51a1.74,1.74,0,0,0,.32.79.75.75,0,0,0,.62.29,1,1,0,0,0,.72-.33,1.87,1.87,0,0,0,.5-.83,10,10,0,0,0,.12-2V46.3a1.78,1.78,0,0,1,.21-1,.66.66,0,0,1,.55-.32.64.64,0,0,1,.55.32,1.86,1.86,0,0,1,.2,1v6.18a1.65,1.65,0,0,1-.2.92.58.58,0,0,1-.5.3.57.57,0,0,1-.51-.32A1.57,1.57,0,0,1,90,52.5Z"/><path d="M94.31,46.2v.26a3.15,3.15,0,0,1,.88-1.09A1.8,1.8,0,0,1,96.28,45a1.65,1.65,0,0,1,1.06.37,2.15,2.15,0,0,1,.71,1,3.22,3.22,0,0,1,.19.84c0,.31.05.69.05,1.16v4a1.81,1.81,0,0,1-.21,1,.61.61,0,0,1-1.09,0,1.8,1.8,0,0,1-.21-1V48.84a4.78,4.78,0,0,0-.21-1.61.81.81,0,0,0-.83-.56A1,1,0,0,0,95,47a2.05,2.05,0,0,0-.49.94,9.62,9.62,0,0,0-.11,1.78V52.4a1.83,1.83,0,0,1-.21,1,.67.67,0,0,1-.56.32.61.61,0,0,1-.53-.34,1.8,1.8,0,0,1-.21-1V46.23a1.83,1.83,0,0,1,.18-.91.59.59,0,0,1,.52-.3.55.55,0,0,1,.36.13,1,1,0,0,1,.26.4A2.08,2.08,0,0,1,94.31,46.2Z"/><path d="M104,52.48v-.21a4.26,4.26,0,0,1-.6.8,2.15,2.15,0,0,1-.64.47,1.76,1.76,0,0,1-.76.16,1.78,1.78,0,0,1-1-.32,3,3,0,0,1-.8-.93A5.25,5.25,0,0,1,99.64,51a8.76,8.76,0,0,1-.17-1.76,6,6,0,0,1,.69-3.12A2.08,2.08,0,0,1,102,45a1.83,1.83,0,0,1,1.1.31,3.44,3.44,0,0,1,.88,1V43.18a2.06,2.06,0,0,1,.19-1,.57.57,0,0,1,.52-.33.58.58,0,0,1,.53.3,1.75,1.75,0,0,1,.19.92v9.41a1.74,1.74,0,0,1-.2.92.58.58,0,0,1-1,0A1.71,1.71,0,0,1,104,52.48Zm-3-3.13a4.86,4.86,0,0,0,.19,1.47,2,2,0,0,0,.52.92,1,1,0,0,0,.73.31,1.09,1.09,0,0,0,.72-.29,2,2,0,0,0,.53-.9,5,5,0,0,0,.2-1.51,4.88,4.88,0,0,0-.2-1.47,2.28,2.28,0,0,0-.53-.94,1,1,0,0,0-.74-.32,1,1,0,0,0-.74.33,2.19,2.19,0,0,0-.5.95A5.27,5.27,0,0,0,101,49.35Z"/><path d="M110.75,52.5a4.62,4.62,0,0,1-1.06.9,2.22,2.22,0,0,1-1.15.3,1.7,1.7,0,0,1-1-.32,2.15,2.15,0,0,1-.68-.88,3,3,0,0,1-.24-1.21,2.65,2.65,0,0,1,.4-1.49,1.9,1.9,0,0,1,1.08-.83l.71-.21,1-.3c.27-.09.57-.2.88-.33a3,3,0,0,0-.24-1.24.89.89,0,0,0-.88-.4,1.41,1.41,0,0,0-.87.23,1.85,1.85,0,0,0-.5.68c-.14.3-.23.5-.29.6a.41.41,0,0,1-.37.14.55.55,0,0,1-.44-.23.93.93,0,0,1-.19-.59,2.32,2.32,0,0,1,.29-1.1,2.23,2.23,0,0,1,.88-.87,2.93,2.93,0,0,1,1.49-.35,3.15,3.15,0,0,1,1.57.34,1.77,1.77,0,0,1,.8,1,6.17,6.17,0,0,1,.24,1.91v1.27c0,.35,0,.74,0,1.17a5.51,5.51,0,0,0,.14,1.25,6.13,6.13,0,0,1,.14.84.91.91,0,0,1-.22.6.64.64,0,0,1-.5.27c-.15,0-.3-.1-.46-.31A4.63,4.63,0,0,1,110.75,52.5Zm-.1-3.09a6.68,6.68,0,0,1-1,.36l-.88.28a1.23,1.23,0,0,0-.47.35,1.16,1.16,0,0,0-.22.74,1.34,1.34,0,0,0,.26.82.82.82,0,0,0,.68.34,1.34,1.34,0,0,0,.83-.28,1.63,1.63,0,0,0,.56-.71,4.7,4.7,0,0,0,.2-1.6Z"/><path d="M113.49,45.21h.17V43.93c0-.35,0-.62,0-.81a1.48,1.48,0,0,1,.11-.51.81.81,0,0,1,.25-.35.57.57,0,0,1,.37-.14.65.65,0,0,1,.52.3,1.06,1.06,0,0,1,.2.5,6,6,0,0,1,0,.83v1.46h.55a.58.58,0,0,1,.49.21.84.84,0,0,1,.17.55.71.71,0,0,1-.24.61,1.21,1.21,0,0,1-.69.17h-.28v3.92a7.37,7.37,0,0,0,0,.77.92.92,0,0,0,.13.44.39.39,0,0,0,.35.17A1.18,1.18,0,0,0,116,52a1.49,1.49,0,0,1,.35-.06.39.39,0,0,1,.33.21.81.81,0,0,1,.15.51.9.9,0,0,1-.4.79,2,2,0,0,1-1.14.27,1.51,1.51,0,0,1-1.08-.34,1.66,1.66,0,0,1-.48-.93,9.31,9.31,0,0,1-.11-1.58v-4.1h-.2a.58.58,0,0,1-.5-.22.91.91,0,0,1-.17-.56.85.85,0,0,1,.18-.55A.64.64,0,0,1,113.49,45.21Z"/><path d="M118.21,44a.66.66,0,0,1-.54-.28,1.18,1.18,0,0,1-.22-.77,1.16,1.16,0,0,1,.23-.75.67.67,0,0,1,.53-.29.66.66,0,0,1,.52.27A1.14,1.14,0,0,1,119,43a1.2,1.2,0,0,1-.22.77A.67.67,0,0,1,118.21,44Zm.75,2.2V52.4a1.72,1.72,0,0,1-.22,1,.62.62,0,0,1-.54.33.59.59,0,0,1-.54-.34,1.8,1.8,0,0,1-.21-1V46.3a1.78,1.78,0,0,1,.21-1,.61.61,0,0,1,.54-.32.63.63,0,0,1,.54.32A1.54,1.54,0,0,1,119,46.23Z"/><path d="M126.21,49.36a7,7,0,0,1-.21,1.76,4.37,4.37,0,0,1-.61,1.38,2.79,2.79,0,0,1-1,.89,2.64,2.64,0,0,1-2.48,0,3,3,0,0,1-1-.9,4.29,4.29,0,0,1-.61-1.37,7.7,7.7,0,0,1,0-3.53,4.36,4.36,0,0,1,.6-1.38,2.84,2.84,0,0,1,1-.88,2.51,2.51,0,0,1,1.24-.31,2.46,2.46,0,0,1,1.24.31,2.81,2.81,0,0,1,1,.89A4.35,4.35,0,0,1,126,47.6,6.91,6.91,0,0,1,126.21,49.36Zm-1.52,0a4.19,4.19,0,0,0-.41-2,1.21,1.21,0,0,0-1.09-.73,1.1,1.1,0,0,0-.78.32,2.09,2.09,0,0,0-.52,1,5.11,5.11,0,0,0-.19,1.48,5.25,5.25,0,0,0,.18,1.46,2.09,2.09,0,0,0,.52,1,1.07,1.07,0,0,0,.79.33,1.21,1.21,0,0,0,1.09-.73A4.2,4.2,0,0,0,124.69,49.36Z"/><path d="M128.79,46.2v.26a3.15,3.15,0,0,1,.88-1.09,1.8,1.8,0,0,1,1.09-.35,1.7,1.7,0,0,1,1.07.37,2.21,2.21,0,0,1,.7,1,3.22,3.22,0,0,1,.19.84c0,.31.05.69.05,1.16v4a1.81,1.81,0,0,1-.21,1,.61.61,0,0,1-1.09,0,1.8,1.8,0,0,1-.21-1V48.84a4.78,4.78,0,0,0-.21-1.61.81.81,0,0,0-.83-.56,1,1,0,0,0-.73.34A2.05,2.05,0,0,0,129,48a9.62,9.62,0,0,0-.11,1.78V52.4a1.83,1.83,0,0,1-.21,1,.67.67,0,0,1-.56.32.61.61,0,0,1-.53-.34,1.8,1.8,0,0,1-.21-1V46.23a1.83,1.83,0,0,1,.18-.91.59.59,0,0,1,.52-.3.55.55,0,0,1,.36.13,1,1,0,0,1,.26.4A2.08,2.08,0,0,1,128.79,46.2Z"/><path d="M33.21,6.42A26.77,26.77,0,1,0,60.12,33.18,26.84,26.84,0,0,0,33.21,6.42ZM9.65,31.17c0-13.47,10.64-24.4,23.77-24.4h0l-4.61,8.49H16.64v5.9h5.67a15.08,15.08,0,0,0,.9,20.63H15V46.6A24.73,24.73,0,0,1,9.65,31.17Zm23.76,9.42a9.28,9.28,0,1,1,9.28-9.28A9.27,9.27,0,0,1,33.41,40.59Zm0,15a23.45,23.45,0,0,1-17.74-8.16H51.16A23.42,23.42,0,0,1,33.42,55.57Zm18.29-8.81v-5h-8a15.06,15.06,0,0,0,.89-20.63H50v-5.9H38L33.42,6.77c13.14,0,23.78,10.93,23.78,24.4A24.65,24.65,0,0,1,51.71,46.76Z"/><path d="M39.68,1.24l-1.06-.15-.49,3.45a.6.6,0,0,1-.2.42.42.42,0,0,1-.36.1.44.44,0,0,1-.33-.2.6.6,0,0,1-.08-.46L37.65,1,36.59.8a.53.53,0,0,1-.36-.16.38.38,0,0,1-.08-.3.41.41,0,0,1,.17-.28.64.64,0,0,1,.38,0l3.09.44a.51.51,0,0,1,.36.16.37.37,0,0,1,.08.31.35.35,0,0,1-.16.26A.52.52,0,0,1,39.68,1.24Z"/><path d="M42.78,5.62,42.72,5l-1.89-.54L40.44,5a2.23,2.23,0,0,1-.36.4.38.38,0,0,1-.34,0,.49.49,0,0,1-.27-.22.43.43,0,0,1-.06-.34.76.76,0,0,1,.09-.18,2.06,2.06,0,0,1,.19-.25l2.05-2.65L42,1.48a1.44,1.44,0,0,1,.24-.25.58.58,0,0,1,.27-.14.81.81,0,0,1,.34,0,.76.76,0,0,1,.31.17.76.76,0,0,1,.16.25,1.5,1.5,0,0,1,.06.29,3.14,3.14,0,0,1,0,.4l.37,3.32a1.55,1.55,0,0,1,0,.54.41.41,0,0,1-.22.25.42.42,0,0,1-.36,0A.38.38,0,0,1,43,6.28a.49.49,0,0,1-.11-.14,1.09,1.09,0,0,1,0-.25C42.8,5.79,42.79,5.7,42.78,5.62ZM41.28,3.8l1.39.4-.16-2.1Z"/><path d="M48.12,4.08l-1-.43-1.4,3.19a.61.61,0,0,1-.31.35.46.46,0,0,1-.38,0,.43.43,0,0,1-.26-.27.62.62,0,0,1,.05-.47l1.4-3.19-1-.43a.49.49,0,0,1-.3-.25.37.37,0,0,1,0-.31A.35.35,0,0,1,45.2,2a.54.54,0,0,1,.38,0l2.86,1.25a.53.53,0,0,1,.3.26.34.34,0,0,1,0,.31.41.41,0,0,1-.23.22A.62.62,0,0,1,48.12,4.08Z"/><path d="M52.21,6.44,50.34,5.26l-.63,1,1.73,1.08a.55.55,0,0,1,.23.26.37.37,0,0,1-.28.45A.47.47,0,0,1,51.05,8L49.32,6.88,48.6,8l1.94,1.21a.46.46,0,0,1,.23.28.33.33,0,0,1-.05.3.34.34,0,0,1-.24.17.49.49,0,0,1-.35-.09L47.86,8.49a.65.65,0,0,1-.31-.37.63.63,0,0,1,.12-.46l1.92-3a.75.75,0,0,1,.23-.26.45.45,0,0,1,.27-.06.94.94,0,0,1,.32.13l2.2,1.38a.56.56,0,0,1,.24.28.32.32,0,0,1-.05.28.36.36,0,0,1-.24.18A.59.59,0,0,1,52.21,6.44Z"/><path d="M51.38,10.24l2.35-3A.64.64,0,0,1,54.11,7a.47.47,0,0,1,.37.1.51.51,0,0,1,.19.34.64.64,0,0,1-.17.43l-2.36,3a.6.6,0,0,1-.38.26.48.48,0,0,1-.55-.44A.6.6,0,0,1,51.38,10.24Z"/><path d="M56.25,13.45a1.35,1.35,0,0,1-.72.39,1.49,1.49,0,0,1-.85-.08,2.45,2.45,0,0,1-.87-.59,2.31,2.31,0,0,1-.65-1,1.68,1.68,0,0,1,0-.74,1.22,1.22,0,0,1,.3-.59.38.38,0,0,1,.3-.13.42.42,0,0,1,.31.13.35.35,0,0,1,.12.26.77.77,0,0,1-.07.34,1.48,1.48,0,0,0-.13.41.88.88,0,0,0,0,.39,1.35,1.35,0,0,0,.94.79.6.6,0,0,0,.55-.16.53.53,0,0,0,.17-.38,1,1,0,0,0-.11-.43c-.08-.14-.18-.33-.33-.56a4.4,4.4,0,0,1-.41-.81,1.49,1.49,0,0,1-.09-.71,1.17,1.17,0,0,1,.35-.64A1.12,1.12,0,0,1,55.72,9a1.28,1.28,0,0,1,.78.11,2.38,2.38,0,0,1,.8.57,2.26,2.26,0,0,1,.47.62,1.59,1.59,0,0,1,.18.59,1.09,1.09,0,0,1-.05.49.81.81,0,0,1-.2.35.49.49,0,0,1-.31.13.39.39,0,0,1-.32-.12.35.35,0,0,1-.12-.24,1.29,1.29,0,0,1,.06-.33,1.23,1.23,0,0,0,.07-.52.91.91,0,0,0-.31-.53,1,1,0,0,0-.55-.32.49.49,0,0,0-.45.12.51.51,0,0,0-.12.23.69.69,0,0,0,0,.28,1.48,1.48,0,0,0,.12.29c0,.08.13.22.24.41a7,7,0,0,1,.38.68,2.29,2.29,0,0,1,.2.59,1.14,1.14,0,0,1,0,.55A1.36,1.36,0,0,1,56.25,13.45Z"/><path d="M56.08,14.78l3-2.36a.66.66,0,0,1,.43-.17.46.46,0,0,1,.34.18.48.48,0,0,1,.11.37.66.66,0,0,1-.26.39l-3,2.36a.64.64,0,0,1-.43.17.49.49,0,0,1-.34-.19.45.45,0,0,1-.1-.37A.64.64,0,0,1,56.08,14.78Z"/><path d="M61.59,22.16a1.34,1.34,0,0,1-.81.13,1.56,1.56,0,0,1-.77-.36,2.51,2.51,0,0,1-.62-.86,2.27,2.27,0,0,1-.27-1.18,1.54,1.54,0,0,1,.24-.71,1.12,1.12,0,0,1,.47-.45.42.42,0,0,1,.33,0,.43.43,0,0,1,.25.23.39.39,0,0,1,0,.28.72.72,0,0,1-.18.29,1.85,1.85,0,0,0-.26.35.77.77,0,0,0-.1.38,1.2,1.2,0,0,0,.13.5,1.14,1.14,0,0,0,.49.56.58.58,0,0,0,.57,0,.51.51,0,0,0,.28-.3.91.91,0,0,0,0-.44q0-.24-.12-.63a4.22,4.22,0,0,1-.12-.92,1.43,1.43,0,0,1,.16-.69,1.13,1.13,0,0,1,.54-.49,1.23,1.23,0,0,1,.73-.1,1.37,1.37,0,0,1,.7.37,2.69,2.69,0,0,1,.56.81,2.09,2.09,0,0,1,.23.74,1.52,1.52,0,0,1,0,.61,1,1,0,0,1-.21.45.85.85,0,0,1-.31.26.46.46,0,0,1-.33,0A.41.41,0,0,1,63,20.8a.33.33,0,0,1,0-.27,1.26,1.26,0,0,1,.16-.29,1.14,1.14,0,0,0,.25-.47.91.91,0,0,0-.12-.6,1,1,0,0,0-.41-.48.46.46,0,0,0-.46,0,.37.37,0,0,0-.19.18.71.71,0,0,0-.07.27,1.58,1.58,0,0,0,0,.31c0,.09,0,.25.09.47a6.38,6.38,0,0,1,.13.76,1.87,1.87,0,0,1,0,.63,1.15,1.15,0,0,1-.21.51A1.32,1.32,0,0,1,61.59,22.16Z"/><path d="M63.12,27a1.41,1.41,0,0,1-.51,0,1.92,1.92,0,0,1-.6-.2,1.74,1.74,0,0,1-.57-.49,2.05,2.05,0,0,1-.4-.81,2.94,2.94,0,0,1-.12-.69,1.76,1.76,0,0,1,0-.61,2.1,2.1,0,0,1,.66-1,2.34,2.34,0,0,1,.51-.36,3,3,0,0,1,.63-.26,3.26,3.26,0,0,1,1-.12,2.15,2.15,0,0,1,.88.26,2.11,2.11,0,0,1,.69.57,2.68,2.68,0,0,1,.41.83,2.33,2.33,0,0,1,.07,1.07,2,2,0,0,1-.36.84,1.1,1.1,0,0,1-.56.41.42.42,0,0,1-.31,0,.34.34,0,0,1-.2-.24.39.39,0,0,1,0-.3,1.28,1.28,0,0,1,.24-.28,1.65,1.65,0,0,0,.39-.58,1.26,1.26,0,0,0-.71-1.47,2,2,0,0,0-1.34,0,2.38,2.38,0,0,0-.86.41,1.18,1.18,0,0,0-.4.58,1.15,1.15,0,0,0,0,.71,1.2,1.2,0,0,0,.39.63,1.27,1.27,0,0,0,.71.26.86.86,0,0,1,.34.06.35.35,0,0,1,.2.26.4.4,0,0,1,0,.32A.37.37,0,0,1,63.12,27Z"/><path d="M62.24,28.11,66,27.52a.61.61,0,0,1,.46.07.44.44,0,0,1,.2.32.46.46,0,0,1-.09.38.64.64,0,0,1-.41.2l-3.74.59a.61.61,0,0,1-.46-.07.5.5,0,0,1-.11-.7A.64.64,0,0,1,62.24,28.11Z"/><path d="M66.23,33.17,66.14,31,65,31l.08,2a.45.45,0,0,1-.09.34.3.3,0,0,1-.25.12.39.39,0,0,1-.28-.09.48.48,0,0,1-.11-.34l-.09-2-1.36.05L63,33.38a.47.47,0,0,1-.09.35.34.34,0,0,1-.28.13.36.36,0,0,1-.28-.1.56.56,0,0,1-.12-.35l-.11-2.66a.63.63,0,0,1,.12-.47.62.62,0,0,1,.45-.16l3.6-.15a.74.74,0,0,1,.35.05.37.37,0,0,1,.2.19.78.78,0,0,1,.07.34L67,33.14a.47.47,0,0,1-.09.35.35.35,0,0,1-.26.13.36.36,0,0,1-.28-.11A.53.53,0,0,1,66.23,33.17Z"/><path d="M66.3,36.3l-3,1.53,2.83.35a.6.6,0,0,1,.4.17.4.4,0,0,1,.1.34.43.43,0,0,1-.18.31.57.57,0,0,1-.43.07l-3.74-.46c-.42,0-.61-.25-.56-.6a.7.7,0,0,1,.06-.23.52.52,0,0,1,.15-.18.8.8,0,0,1,.21-.15l.24-.13,3-1.49-2.79-.34a.58.58,0,0,1-.4-.18.47.47,0,0,1-.1-.35.45.45,0,0,1,.18-.31.59.59,0,0,1,.43-.07l3.67.45a.92.92,0,0,1,.36.1.49.49,0,0,1,.22.23.62.62,0,0,1,0,.33.52.52,0,0,1-.07.22.87.87,0,0,1-.13.15,1.3,1.3,0,0,1-.21.12Z"/><path d="M61.74,43.82a1.31,1.31,0,0,1-.44-.25,2,2,0,0,1-.4-.5,1.84,1.84,0,0,1-.22-.72,2.44,2.44,0,0,1,.11-.9,3.16,3.16,0,0,1,.28-.64,1.65,1.65,0,0,1,.38-.48A1.71,1.71,0,0,1,62,40a2.17,2.17,0,0,1,.58-.17,2.63,2.63,0,0,1,.63,0,3.25,3.25,0,0,1,.66.14,2.75,2.75,0,0,1,.94.46,2.25,2.25,0,0,1,.61.7,2.15,2.15,0,0,1,.26.86,2.45,2.45,0,0,1-.11.92,2.25,2.25,0,0,1-.53.93,1.9,1.9,0,0,1-.75.5,1.13,1.13,0,0,1-.69,0,.41.41,0,0,1-.25-.2.38.38,0,0,1,0-.31.4.4,0,0,1,.17-.25,1.2,1.2,0,0,1,.35-.11,1.3,1.3,0,0,0,.64-.28,1,1,0,0,0,.36-.56,1.15,1.15,0,0,0-.15-1,2,2,0,0,0-1.13-.72,2.36,2.36,0,0,0-.94-.12,1.12,1.12,0,0,0-.66.26,1.23,1.23,0,0,0-.37.6,1.21,1.21,0,0,0,0,.75A1.35,1.35,0,0,0,62,43a.82.82,0,0,1,.25.24.35.35,0,0,1,0,.32.41.41,0,0,1-.2.25A.4.4,0,0,1,61.74,43.82Z"/><path d="M62.19,48.7l1-2-1.05-.53L61.21,48a.51.51,0,0,1-.24.26.33.33,0,0,1-.29,0,.39.39,0,0,1-.19-.21.58.58,0,0,1,.06-.35l.91-1.83-1.22-.6-1,2a.51.51,0,0,1-.25.27.38.38,0,0,1-.31,0,.36.36,0,0,1-.19-.23.49.49,0,0,1,.06-.36l1.19-2.39a.6.6,0,0,1,.33-.35.61.61,0,0,1,.47.08l3.23,1.61a1.06,1.06,0,0,1,.28.2.43.43,0,0,1,.08.27.81.81,0,0,1-.1.33L62.86,49a.55.55,0,0,1-.25.27.37.37,0,0,1-.29,0,.36.36,0,0,1-.2-.22A.51.51,0,0,1,62.19,48.7Z"/><path d="M54.1,53.57l.6.24,1.35-1.44-.29-.59a1.93,1.93,0,0,1-.2-.5.35.35,0,0,1,.12-.31.51.51,0,0,1,.33-.15.44.44,0,0,1,.32.1,1.25,1.25,0,0,1,.12.17,2.37,2.37,0,0,1,.14.28l1.43,3,.14.31a1.34,1.34,0,0,1,.12.33.61.61,0,0,1,0,.3.69.69,0,0,1-.18.3.66.66,0,0,1-.29.2.74.74,0,0,1-.29,0,1.38,1.38,0,0,1-.29-.08l-.37-.15-3.13-1.19a1.16,1.16,0,0,1-.47-.24.41.41,0,0,1-.13-.31.47.47,0,0,1,.13-.34.42.42,0,0,1,.16-.12.37.37,0,0,1,.18,0,.69.69,0,0,1,.24.06Zm2.31-.51-1,1.06,1.94.82Z"/><path d="M54.15,58.52l-3.22-1.11,1.73,2.27a.65.65,0,0,1,.16.41.44.44,0,0,1-.18.31.46.46,0,0,1-.35.09.63.63,0,0,1-.35-.26l-2.28-3c-.26-.34-.24-.61,0-.83a.71.71,0,0,1,.21-.11.85.85,0,0,1,.23,0l.25.05.26.08,3.16,1.11-1.7-2.23a.63.63,0,0,1-.15-.41.4.4,0,0,1,.18-.31.39.39,0,0,1,.35-.09.58.58,0,0,1,.35.25l2.24,2.95a.81.81,0,0,1,.18.32.57.57,0,0,1-.21.58.53.53,0,0,1-.21.11.66.66,0,0,1-.2,0l-.22-.06Z"/><path d="M50.23,61.81l-1.13.59a3.6,3.6,0,0,1-.8.31,1.54,1.54,0,0,1-.74,0A2.43,2.43,0,0,1,46,61.32a4.34,4.34,0,0,1-.3-.73,2.3,2.3,0,0,1-.08-.68,1.77,1.77,0,0,1,.12-.64,1.73,1.73,0,0,1,.25-.44,1.58,1.58,0,0,1,.37-.36,3.58,3.58,0,0,1,.52-.32L48,57.56a.93.93,0,0,1,.4-.12.42.42,0,0,1,.26.12,1.48,1.48,0,0,1,.21.32L50.49,61a.62.62,0,0,1,.09.47A.64.64,0,0,1,50.23,61.81Zm-.69-.51L48,58.41l-.66.34-.34.19a1.86,1.86,0,0,0-.22.19.76.76,0,0,0-.16.25,1.75,1.75,0,0,0,.22,1.49,2,2,0,0,0,.68.84.93.93,0,0,0,.68.16A2.64,2.64,0,0,0,49,61.6Z"/><path d="M37.78,65.18,38.84,65l-.62-3.43a.66.66,0,0,1,.06-.46.45.45,0,0,1,.32-.21A.5.5,0,0,1,39,61a.69.69,0,0,1,.21.42l.61,3.43,1.06-.19a.51.51,0,0,1,.38,0,.4.4,0,0,1,.18.26.39.39,0,0,1-.08.32.58.58,0,0,1-.34.17L37.92,66a.61.61,0,0,1-.39,0,.39.39,0,0,1-.17-.27.37.37,0,0,1,.07-.31A.61.61,0,0,1,37.78,65.18Z"/><path d="M33.08,65.5l2.21-.07,0-1.17-2,.06a.5.5,0,0,1-.33-.09.31.31,0,0,1-.12-.26.33.33,0,0,1,.1-.27.45.45,0,0,1,.33-.11l2-.07,0-1.36-2.28.07a.55.55,0,0,1-.36-.09.36.36,0,0,1-.12-.28.31.31,0,0,1,.11-.28.44.44,0,0,1,.34-.12l2.67-.09a.69.69,0,0,1,.47.13.67.67,0,0,1,.15.45l.11,3.61a.72.72,0,0,1-.05.34.41.41,0,0,1-.19.2,1,1,0,0,1-.34.07l-2.59.08a.46.46,0,0,1-.35-.09.34.34,0,0,1-.12-.27.33.33,0,0,1,.1-.27A.54.54,0,0,1,33.08,65.5Z"/><path d="M27.48,62.43a1.3,1.3,0,0,1,.18-.48,1.82,1.82,0,0,1,.42-.47,1.84,1.84,0,0,1,.67-.34,2.41,2.41,0,0,1,.9,0,3.19,3.19,0,0,1,.69.16,2,2,0,0,1,.95.75,2.24,2.24,0,0,1,.26.54,2.63,2.63,0,0,1,.13.62,3.13,3.13,0,0,1,0,.68,2.84,2.84,0,0,1-.3,1,2,2,0,0,1-.58.71,2,2,0,0,1-.8.4,2.35,2.35,0,0,1-.92.06,2.3,2.3,0,0,1-1-.36,2,2,0,0,1-.63-.66,1.12,1.12,0,0,1-.16-.67.39.39,0,0,1,.15-.28.34.34,0,0,1,.3-.09.35.35,0,0,1,.27.12,1,1,0,0,1,.17.33,1.41,1.41,0,0,0,.39.58,1.07,1.07,0,0,0,.61.26,1.16,1.16,0,0,0,1-.33,2,2,0,0,0,.52-1.24,2.38,2.38,0,0,0,0-.94,1.16,1.16,0,0,0-.38-.61,1.23,1.23,0,0,0-.65-.26,1.2,1.2,0,0,0-.74.11,1.25,1.25,0,0,0-.51.55,1.12,1.12,0,0,1-.19.29.36.36,0,0,1-.31.08.41.41,0,0,1-.29-.16A.42.42,0,0,1,27.48,62.43Z"/><path d="M24.78,64.58l.4-1.31-2-.62L22.75,64a.64.64,0,0,1-.26.39.45.45,0,0,1-.38,0,.46.46,0,0,1-.3-.24.6.6,0,0,1,0-.46l1.1-3.62a.63.63,0,0,1,.26-.38.48.48,0,0,1,.39,0,.42.42,0,0,1,.29.24.63.63,0,0,1,0,.47l-.47,1.54,2,.62L25.88,61a.64.64,0,0,1,.26-.39.48.48,0,0,1,.39,0,.46.46,0,0,1,.29.25.6.6,0,0,1,0,.46l-1.1,3.62a.66.66,0,0,1-.26.38.45.45,0,0,1-.38,0,.47.47,0,0,1-.3-.25A.6.6,0,0,1,24.78,64.58Z"/><path d="M19.16,62.49l-.41-3.37-1.29,2.54a.59.59,0,0,1-.3.32.4.4,0,0,1-.35,0,.42.42,0,0,1-.23-.28.59.59,0,0,1,.07-.43l1.71-3.36c.19-.37.44-.48.76-.32a.55.55,0,0,1,.19.14.5.5,0,0,1,.13.19,1,1,0,0,1,.06.25,2.51,2.51,0,0,1,0,.27l.38,3.33,1.27-2.51a.66.66,0,0,1,.31-.31.45.45,0,0,1,.59.3.58.58,0,0,1-.08.43L20.34,63a1,1,0,0,1-.21.3.63.63,0,0,1-.3.13.59.59,0,0,1-.32-.06.54.54,0,0,1-.18-.14.54.54,0,0,1-.1-.18,1.32,1.32,0,0,1-.05-.23C19.18,62.69,19.17,62.59,19.16,62.49Z"/><path d="M13.2,59.54a2.53,2.53,0,0,1-.85-1,2,2,0,0,1-.14-1.18,3,3,0,0,1,.57-1.21,3.31,3.31,0,0,1,.73-.72,2.06,2.06,0,0,1,.84-.35,2,2,0,0,1,.9,0,2.87,2.87,0,0,1,.92.47,2.62,2.62,0,0,1,.7.76,1.88,1.88,0,0,1,.29.86,2.21,2.21,0,0,1-.11.91,3.35,3.35,0,0,1-.48.89,3,3,0,0,1-.74.72,2.16,2.16,0,0,1-.84.34,1.8,1.8,0,0,1-.89,0A2.49,2.49,0,0,1,13.2,59.54Zm.37-2.81a2.18,2.18,0,0,0-.41.84,1.22,1.22,0,0,0,0,.76,1.39,1.39,0,0,0,.46.6,1.35,1.35,0,0,0,.5.24,1.23,1.23,0,0,0,.54,0,1.57,1.57,0,0,0,.55-.25,2.38,2.38,0,0,0,.52-.53,2,2,0,0,0,.36-.65,1.53,1.53,0,0,0,.1-.61,1.31,1.31,0,0,0-.15-.53,1.42,1.42,0,0,0-.37-.41,1.36,1.36,0,0,0-.67-.27,1.35,1.35,0,0,0-.74.16A2.19,2.19,0,0,0,13.57,56.73Z"/><path d="M10,56l2.52-2.42-1.38-1.44a.5.5,0,0,1-.17-.34.33.33,0,0,1,.12-.29.36.36,0,0,1,.29-.11.52.52,0,0,1,.33.19l1.65,1.71a.62.62,0,0,1,.22.43.64.64,0,0,1-.23.41L10.68,56.7a.61.61,0,0,1-.41.2.42.42,0,0,1-.35-.15.45.45,0,0,1-.14-.36A.58.58,0,0,1,10,56Z"/><path d="M6,52.19A2.59,2.59,0,0,1,5.53,51a2,2,0,0,1,.23-1.16,2.92,2.92,0,0,1,.91-1,3.39,3.39,0,0,1,.91-.46,2.19,2.19,0,0,1,.91-.08,2,2,0,0,1,.85.31,3,3,0,0,1,1.17,1.66A2,2,0,0,1,10.14,52a2.91,2.91,0,0,1-.73.71,3.17,3.17,0,0,1-.92.46,2.18,2.18,0,0,1-.91.07,1.89,1.89,0,0,1-.83-.32A2.61,2.61,0,0,1,6,52.19Zm1.2-2.57a2.28,2.28,0,0,0-.65.67A1.34,1.34,0,0,0,6.4,51a1.5,1.5,0,0,0,.26.71,1.34,1.34,0,0,0,.41.38,1.13,1.13,0,0,0,.51.16,1.45,1.45,0,0,0,.6-.07,2.77,2.77,0,0,0,.66-.34,2.65,2.65,0,0,0,.54-.51,1.44,1.44,0,0,0,.27-.56,1.28,1.28,0,0,0,0-.55,1.33,1.33,0,0,0-.23-.5,1.36,1.36,0,0,0-.55-.46,1.28,1.28,0,0,0-.76-.07A2.18,2.18,0,0,0,7.24,49.62Z"/><path d="M4.68,43.64l.84-.39a1,1,0,0,1,.28-.09.49.49,0,0,1,.23,0,1.43,1.43,0,0,1,.26.15A3.71,3.71,0,0,1,7,44a3.16,3.16,0,0,1,.47.76,2.9,2.9,0,0,1,.28,1,2.33,2.33,0,0,1-.12.92,2.17,2.17,0,0,1-.5.78,2.9,2.9,0,0,1-.87.59,2.89,2.89,0,0,1-1,.28,2,2,0,0,1-.92-.12,2.06,2.06,0,0,1-.79-.51,3.3,3.3,0,0,1-.6-.89,2.73,2.73,0,0,1-.25-.84,2,2,0,0,1,0-.7,1.39,1.39,0,0,1,.23-.49.73.73,0,0,1,.3-.27.37.37,0,0,1,.34,0,.51.51,0,0,1,.26.24.52.52,0,0,1,0,.21.36.36,0,0,1-.06.2,3.84,3.84,0,0,0-.25.46,1.07,1.07,0,0,0-.08.41,1.35,1.35,0,0,0,.14.54A1.74,1.74,0,0,0,4,47a1.22,1.22,0,0,0,.5.27,1.37,1.37,0,0,0,.61,0,2.28,2.28,0,0,0,.69-.21,1.89,1.89,0,0,0,1-.9,1.36,1.36,0,0,0,0-1.18,2.72,2.72,0,0,0-.35-.55,3.54,3.54,0,0,0-.49-.44l-.7.33.32.69a.9.9,0,0,1,.1.41.29.29,0,0,1-.2.24.33.33,0,0,1-.29,0,.52.52,0,0,1-.23-.25l-.46-1a1.34,1.34,0,0,1-.12-.33.36.36,0,0,1,0-.27A.63.63,0,0,1,4.68,43.64Z"/><path d="M5.46,41.17,4,41.58,2.56,43.2c-.13.14-.24.25-.31.31a.57.57,0,0,1-.22.13.39.39,0,0,1-.31,0,.45.45,0,0,1-.2-.28.35.35,0,0,1,0-.32,2.65,2.65,0,0,1,.35-.42L3.06,41.3l-1.65-.49-.25-.08L1,40.66a.64.64,0,0,1-.16-.11.51.51,0,0,1-.09-.18.38.38,0,0,1,0-.33.35.35,0,0,1,.23-.2.61.61,0,0,1,.27,0,2,2,0,0,1,.39.11l2.1.68,1.47-.41a.64.64,0,0,1,.46,0,.49.49,0,0,1,.19.68A.64.64,0,0,1,5.46,41.17Z"/><path d="M.75,32l0,1.94H2V32.26a.49.49,0,0,1,.1-.34.33.33,0,0,1,.26-.11.37.37,0,0,1,.27.11.52.52,0,0,1,.1.33v1.62H4.3a.65.65,0,0,1,.45.13.45.45,0,0,1,.15.35.46.46,0,0,1-.15.36.61.61,0,0,1-.44.14l-3.69,0a.83.83,0,0,1-.34-.06.41.41,0,0,1-.2-.19A.88.88,0,0,1,0,34.27L0,32a.5.5,0,0,1,.1-.35.34.34,0,0,1,.27-.12.37.37,0,0,1,.27.11A.52.52,0,0,1,.75,32Z"/><path d="M.31,28a2.54,2.54,0,0,1,.5-1.23,2,2,0,0,1,1-.68A2.83,2.83,0,0,1,3.12,26a3,3,0,0,1,1,.3,2.35,2.35,0,0,1,.71.57,2,2,0,0,1,.39.82,2.94,2.94,0,0,1-.32,2,2,2,0,0,1-.62.66,2.19,2.19,0,0,1-.85.33,3.48,3.48,0,0,1-1,0,3.05,3.05,0,0,1-1-.32,2.19,2.19,0,0,1-.7-.57A2.16,2.16,0,0,1,.33,29,2.83,2.83,0,0,1,.31,28ZM3,27a2.21,2.21,0,0,0-.93,0,1.28,1.28,0,0,0-.65.4,1.36,1.36,0,0,0-.3.69,1.27,1.27,0,0,0,0,.55,1.23,1.23,0,0,0,.25.48,1.45,1.45,0,0,0,.49.36,2.39,2.39,0,0,0,.7.21,2.11,2.11,0,0,0,.75,0,1.53,1.53,0,0,0,.59-.2,1.18,1.18,0,0,0,.38-.39,1.37,1.37,0,0,0,.11-1.23,1.28,1.28,0,0,0-.49-.58A2.27,2.27,0,0,0,3,27Z"/><path d="M3.81,25.11l-2.17-.76a.63.63,0,0,1-.38-.27.45.45,0,0,1,0-.38.44.44,0,0,1,.26-.29.62.62,0,0,1,.46,0l2.23.77a2,2,0,0,0,.66.13.73.73,0,0,0,.5-.16,1.25,1.25,0,0,0,.36-.57,1,1,0,0,0,0-.86,1.43,1.43,0,0,0-.79-.53l-2.25-.78a.65.65,0,0,1-.37-.27.46.46,0,0,1,0-.38.47.47,0,0,1,.26-.29.61.61,0,0,1,.46,0l2.18.76a3.21,3.21,0,0,1,.85.41,1.4,1.4,0,0,1,.49.61,1.68,1.68,0,0,1,.13.7,2.52,2.52,0,0,1-.16.81,3.53,3.53,0,0,1-.43.87,1.42,1.42,0,0,1-.57.5,1.31,1.31,0,0,1-.72.14A3.2,3.2,0,0,1,3.81,25.11Z"/><path d="M4.27,17.88l3.39-.26-2.49-1.4a.66.66,0,0,1-.31-.31.4.4,0,0,1,0-.35.42.42,0,0,1,.29-.22.59.59,0,0,1,.42.1L8.9,17.28c.37.21.47.46.29.77a.58.58,0,0,1-.15.19.56.56,0,0,1-.2.12l-.25.05-.27,0L5,18.68l2.45,1.38a.56.56,0,0,1,.3.31.42.42,0,0,1,0,.36A.43.43,0,0,1,7.4,21,.58.58,0,0,1,7,20.86L3.75,19.05a1,1,0,0,1-.29-.23.5.5,0,0,1-.11-.3.6.6,0,0,1,.07-.32A.54.54,0,0,1,3.57,18a.48.48,0,0,1,.18-.08l.23,0Z"/><path d="M6.56,13.3l.81-1a3.1,3.1,0,0,1,.61-.6,1.49,1.49,0,0,1,.67-.29,2.41,2.41,0,0,1,2,.64,4.34,4.34,0,0,1,.57.56,2.41,2.41,0,0,1,.35.59,1.93,1.93,0,0,1,.14.64,1.4,1.4,0,0,1-.06.5,1.68,1.68,0,0,1-.2.48,4,4,0,0,1-.34.5l-.81,1a.8.8,0,0,1-.32.26.34.34,0,0,1-.28,0,1.24,1.24,0,0,1-.32-.21L6.64,14.15a.62.62,0,0,1-.26-.4A.6.6,0,0,1,6.56,13.3Zm.83.2,2.53,2.05.47-.58a3.06,3.06,0,0,0,.23-.3,1.13,1.13,0,0,0,.13-.27.74.74,0,0,0,.05-.29A1.79,1.79,0,0,0,10,12.83a2.11,2.11,0,0,0-1-.5,1,1,0,0,0-.69.13A2.71,2.71,0,0,0,7.8,13Z"/><path d="M14.79,10.8l-.57-.29-1.47,1.31.24.61a2.3,2.3,0,0,1,.15.52.35.35,0,0,1-.15.3.44.44,0,0,1-.33.12.39.39,0,0,1-.31-.13.62.62,0,0,1-.11-.17l-.12-.29L11,9.63l-.12-.33c0-.13-.07-.24-.09-.34a.7.7,0,0,1,0-.29A.69.69,0,0,1,11,8.38a.66.66,0,0,1,.3-.17.76.76,0,0,1,.3,0,1.57,1.57,0,0,1,.28.1l.36.18,3,1.46a1.75,1.75,0,0,1,.46.29.42.42,0,0,1,.09.32.44.44,0,0,1-.16.33.42.42,0,0,1-.17.1.37.37,0,0,1-.18,0,1.06,1.06,0,0,1-.23-.08Zm-2.33.3,1.08-1-1.87-1Z"/><path d="M16.33,5.46l-.89.61L17.4,9a.66.66,0,0,1,.14.45.44.44,0,0,1-.21.31.48.48,0,0,1-.38.08.64.64,0,0,1-.36-.29l-2-2.88-.88.6a.61.61,0,0,1-.37.12.4.4,0,0,1-.27-.17.38.38,0,0,1-.06-.32.54.54,0,0,1,.25-.3L15.88,4.8a.62.62,0,0,1,.38-.12.36.36,0,0,1,.26.17.35.35,0,0,1,.06.31A.54.54,0,0,1,16.33,5.46Z"/><path d="M19.24,7.84,17.47,4.5a.65.65,0,0,1-.09-.45.45.45,0,0,1,.24-.3.49.49,0,0,1,.39,0,.74.74,0,0,1,.33.33l1.77,3.34a.65.65,0,0,1,.09.45.49.49,0,0,1-.25.3.46.46,0,0,1-.38,0A.74.74,0,0,1,19.24,7.84Z"/><path d="M21.47,2a2.61,2.61,0,0,1,1.32-.18,2,2,0,0,1,1.07.51,3,3,0,0,1,.73,1.13,3.14,3.14,0,0,1,.21,1,2.08,2.08,0,0,1-.15.9,2,2,0,0,1-.51.74,2.77,2.77,0,0,1-.89.53,2.91,2.91,0,0,1-1,.19,2,2,0,0,1-.88-.22A2,2,0,0,1,20.64,6a3.42,3.42,0,0,1-.5-.88,3.15,3.15,0,0,1-.21-1,2.25,2.25,0,0,1,.16-.9,1.9,1.9,0,0,1,.52-.72A2.69,2.69,0,0,1,21.47,2Zm2.18,1.81a2.16,2.16,0,0,0-.48-.8,1.28,1.28,0,0,0-.67-.37,1.31,1.31,0,0,0-.75.08,1.39,1.39,0,0,0-.47.29,1.2,1.2,0,0,0-.29.45,1.65,1.65,0,0,0-.08.6,2.6,2.6,0,0,0,.16.73,2.68,2.68,0,0,0,.36.65,1.61,1.61,0,0,0,.47.41A1.26,1.26,0,0,0,23,5.92a1.3,1.3,0,0,0,.58-.42,1.36,1.36,0,0,0,.27-.72A2.17,2.17,0,0,0,23.65,3.82Z"/><path d="M26.55,1.11l2.38,2.43L28.4.73a.6.6,0,0,1,0-.43.4.4,0,0,1,.29-.19.41.41,0,0,1,.36.07.66.66,0,0,1,.2.39L30,4.27c.08.42-.05.66-.4.72a.66.66,0,0,1-.24,0,.58.58,0,0,1-.22-.08.74.74,0,0,1-.2-.16l-.2-.19-2.33-2.4.52,2.76a.55.55,0,0,1-.05.43.39.39,0,0,1-.3.2.4.4,0,0,1-.35-.08A.56.56,0,0,1,26,5.1l-.69-3.64a1.18,1.18,0,0,1,0-.37.47.47,0,0,1,.16-.28.73.73,0,0,1,.29-.15.88.88,0,0,1,.23,0,.51.51,0,0,1,.18.09.8.8,0,0,1,.18.15Z"/><path d="M34.9,2.42A1.48,1.48,0,1,1,33.42.94,1.47,1.47,0,0,1,34.9,2.42Z"/></g></g></svg>